# xmcd
#
# Track frame offsets:
#	150
#	33560
#	67721
#	103076
#	136009
#	169899
#	204546
#
# Disc length: 3122 seconds
#
# Revision: 0
# Processed by: cddbd v1.5.2PL0 Copyright (c) Steve Scherf et al.
# Submitted via: dBpowerAMP V4.0
#
DISCID=590c3007
DTITLE=The Howling Hex - Nightclub Version of the Eternal
DYEAR=1900
DGENRE=
TTITLE0=1. hammer and Bluebird
TTITLE1=2. Lips Begin to Move
TTITLE2=3. This Planet Sweet
TTITLE3=4. How Many Steps Now
TTITLE4=5. Good Things Are Easy
TTITLE5=6. Six Pack Days
TTITLE6=7. Out, Out, Out
EXTD=
EXTT0=
EXTT1=
EXTT2=
EXTT3=
EXTT4=
EXTT5=
EXTT6=
PLAYORDER=
